<svg width="88" height="88" viewBox="0 0 88 88" fill="none" xmlns="http://www.w3.org/2000/svg">
<circle cx="43.6735" cy="43.6735" r="43.6735" fill="#B89150"/>
<path d="M73.2816 27.1372C73.7199 25.6563 73.2816 24.5664 71.1728 24.5664H64.1948C62.4177 24.5664 61.6002 25.5023 61.1619 26.5449C61.1619 26.5449 57.6077 35.2052 52.5845 40.8207C50.9615 42.4438 50.2151 42.9651 49.3265 42.9651C48.8882 42.9651 48.2129 42.4438 48.2129 40.9629V27.1372C48.2129 25.3602 47.7153 24.5664 46.2463 24.5664H35.2758C34.1621 24.5664 33.4987 25.3957 33.4987 26.1658C33.4987 27.8481 36.0103 28.239 36.271 32.9779V43.2613C36.271 45.5122 35.8681 45.9269 34.9796 45.9269C32.6102 45.9269 26.8524 37.231 23.4404 27.2794C22.7533 25.3483 22.078 24.5664 20.2891 24.5664H13.3111C11.3208 24.5664 10.918 25.5023 10.918 26.5449C10.918 28.393 13.2874 37.5746 21.9477 49.7061C27.7173 57.9873 35.8444 62.4774 43.2371 62.4774C47.6798 62.4774 48.2248 61.4822 48.2248 59.7644C48.2248 51.8505 47.822 51.1041 50.0492 51.1041C51.0799 51.1041 52.857 51.6254 57.0035 55.6179C61.7424 60.3568 62.5243 62.4774 65.1781 62.4774H72.1561C74.1464 62.4774 75.1534 61.4822 74.5729 59.5156C73.246 55.3809 64.2777 46.8747 63.8749 46.306C62.8442 44.9791 63.1404 44.3867 63.8749 43.202C63.8867 43.1902 72.4049 31.2008 73.2816 27.1372Z" fill="white"/>
</svg>
