<svg width="89" height="88" viewBox="0 0 89 88" fill="none" xmlns="http://www.w3.org/2000/svg">
<circle cx="44.4996" cy="43.6735" r="43.6735" fill="#B89150"/>
<path d="M51.6661 42.3073L38.8711 33.7773V50.8373L51.6661 42.3073Z" stroke="white" stroke-width="6.56122" stroke-linecap="round" stroke-linejoin="round"/>
<path d="M15.4121 42.3083C15.4121 50.2519 16.2385 54.89 16.8515 57.2891C17.0206 57.94 17.3403 58.5421 17.7848 59.0468C18.2293 59.5515 18.7862 59.9447 19.4105 60.1946C28.3404 63.6066 43.1345 63.5266 43.1345 63.5266C43.1345 63.5266 57.9287 63.6066 66.8585 60.1946C67.4829 59.9447 68.0398 59.5515 68.4843 59.0468C68.9288 58.5421 69.2485 57.94 69.4175 57.2891C70.0306 54.89 70.8569 50.2519 70.8569 42.3083C70.8569 34.3648 70.0306 29.7266 69.4175 27.3275C69.2485 26.6766 68.9288 26.0745 68.4843 25.5698C68.0398 25.0651 67.4829 24.672 66.8585 24.422C57.9287 21.01 43.1345 21.09 43.1345 21.09C43.1345 21.09 28.3404 21.01 19.4105 24.422C18.7862 24.672 18.2293 25.0651 17.7848 25.5698C17.3403 26.0745 17.0206 26.6766 16.8515 27.3275C16.2385 29.7266 15.4121 34.3648 15.4121 42.3083Z" stroke="white" stroke-width="6.56122" stroke-linecap="round" stroke-linejoin="round"/>
</svg>
