<svg width="100" height="116" viewBox="0 0 100 116" fill="none" xmlns="http://www.w3.org/2000/svg">
<path d="M71.2946 72.5603L50 93.8549L28.7054 72.5603C12.7455 73.2522 0 86.3103 0 102.426V104.569C0 110.484 4.79911 115.283 10.7143 115.283H89.2857C95.2009 115.283 100 110.484 100 104.569V102.426C100 86.3103 87.2545 73.2522 71.2946 72.5603ZM3.03571 18.8103L4.46429 19.1451V32.1808C2.90179 33.1183 1.78571 34.7478 1.78571 36.7121C1.78571 38.5871 2.8125 40.1496 4.26339 41.1094L0.78125 55.0156C0.401786 56.5558 1.25 58.1406 2.47768 58.1406H11.808C13.0357 58.1406 13.8839 56.5558 13.5045 55.0156L10.0223 41.1094C11.4732 40.1496 12.5 38.5871 12.5 36.7121C12.5 34.7478 11.3839 33.1183 9.82143 32.1808V20.4397L24.5536 23.9888C22.6339 27.8281 21.4286 32.1138 21.4286 36.7121C21.4286 52.4933 34.2188 65.2835 50 65.2835C65.7812 65.2835 78.5714 52.4933 78.5714 36.7121C78.5714 32.1138 77.3884 27.8281 75.4464 23.9888L96.942 18.8103C101.004 17.8281 101.004 12.7612 96.942 11.779L54.442 1.51116C51.5402 0.819196 48.4821 0.819196 45.5804 1.51116L3.03571 11.7567C-1.00446 12.7388 -1.00446 17.8281 3.03571 18.8103Z" fill="#083C86"/>
</svg>
