<svg width="356" height="96" viewBox="0 0 356 96" fill="none" xmlns="http://www.w3.org/2000/svg">
<path d="M353.032 68.2555C353.726 68.708 353.922 69.6373 353.469 70.3313L346.096 81.6396C345.643 82.3335 344.714 82.5292 344.02 82.0768C343.326 81.6243 343.13 80.6949 343.583 80.001L350.137 69.9491L340.085 63.3947C339.391 62.9422 339.196 62.0128 339.648 61.3189C340.101 60.625 341.03 60.4292 341.724 60.8817L353.032 68.2555ZM2.7044 1.6784C3.59484 2.15248 4.48638 2.62546 5.37903 3.09731L3.97708 5.74957C3.08176 5.27632 2.18757 4.80194 1.29453 4.32647L2.7044 1.6784ZM10.7482 5.91446C12.5385 6.84673 14.3332 7.7742 16.1323 8.69658L14.7636 11.3662C12.9588 10.4408 11.1584 9.51045 9.36262 8.57529L10.7482 5.91446ZM21.5381 11.4457C23.3398 12.3545 25.1459 13.258 26.9564 14.1558L25.6236 16.8435C23.8069 15.9426 21.9947 15.0361 20.187 14.1243L21.5381 11.4457ZM32.3981 16.8307C34.2124 17.7146 36.031 18.5926 37.854 19.4645L36.5596 22.1709C34.73 21.2959 32.9049 20.4147 31.0842 19.5277L32.3981 16.8307ZM43.332 22.0595C45.1594 22.9168 46.9913 23.7677 48.8274 24.612L47.5742 27.3377C45.7309 26.4902 43.8921 25.636 42.0578 24.7755L43.332 22.0595ZM54.3429 27.1218C56.1838 27.9507 58.029 28.7727 59.8786 29.5875L58.6692 32.3329C56.8121 31.5148 54.9594 30.6895 53.1112 29.8573L54.3429 27.1218ZM65.4325 32.0067C67.287 32.8053 69.1459 33.5964 71.0091 34.3799L69.8462 37.1454C67.975 36.3585 66.1083 35.564 64.246 34.7621L65.4325 32.0067ZM76.6021 36.703C78.4701 37.4693 80.3424 38.2276 82.219 38.9778L81.1055 41.7635C79.2204 41.0099 77.3398 40.2482 75.4635 39.4786L76.6021 36.703ZM87.8523 41.1995C89.7335 41.9314 91.619 42.6549 93.5088 43.3696L92.4475 46.1756C90.5488 45.4575 88.6545 44.7307 86.7646 43.9954L87.8523 41.1995ZM99.1835 45.4847C101.078 46.1803 102.976 46.867 104.879 47.5445L103.873 50.3707C101.961 49.6899 100.053 48.9998 98.1494 48.3008L99.1835 45.4847ZM110.595 49.547C112.503 50.2044 114.414 50.8524 116.33 51.4907L115.382 54.3369C113.456 53.6953 111.535 53.044 109.618 52.3833L110.595 49.547ZM122.086 53.3748C124.006 53.9921 125.931 54.5994 127.859 55.1965L126.972 58.0623C125.033 57.4619 123.099 56.8514 121.168 56.2309L122.086 53.3748ZM133.656 56.9565C135.588 57.5316 137.525 58.0964 139.466 58.6505L138.642 61.5353C136.69 60.978 134.743 60.4101 132.8 59.8318L133.656 56.9565ZM145.299 60.2801C147.244 60.8114 149.193 61.3318 151.146 61.8411L150.389 64.744C148.424 64.2318 146.464 63.7084 144.508 63.174L145.299 60.2801ZM157.014 63.3344C158.97 63.82 160.931 64.2943 162.896 64.757L162.209 67.6771C160.232 67.2117 158.259 66.7346 156.291 66.2461L157.014 63.3344ZM168.797 66.1086C170.765 66.5466 172.737 66.973 174.713 67.3873L174.098 70.3234C172.109 69.9066 170.125 69.4776 168.145 69.0369L168.797 66.1086ZM180.644 68.5917C182.622 68.9805 184.604 69.3571 186.591 69.7213L186.05 72.6721C184.051 72.3056 182.056 71.9266 180.065 71.5354L180.644 68.5917ZM192.548 70.7736C194.536 71.1114 196.528 71.4367 198.525 71.7491L198.061 74.713C196.052 74.3986 194.047 74.0712 192.046 73.7311L192.548 70.7736ZM204.505 72.6445C206.502 72.9298 208.502 73.2022 210.507 73.4613L210.122 76.4365C208.104 76.1757 206.09 75.9015 204.081 75.6143L204.505 72.6445ZM216.507 74.1955C218.51 74.4268 220.517 74.6447 222.528 74.849L222.224 77.8336C220.2 77.6279 218.179 77.4085 216.163 77.1757L216.507 74.1955ZM228.546 75.4185C230.553 75.5944 232.565 75.7567 234.581 75.9051L234.36 78.897C232.331 78.7476 230.305 78.5842 228.284 78.407L228.546 75.4185ZM240.613 76.3064C242.624 76.426 244.639 76.5316 246.658 76.623L246.522 79.6199C244.489 79.5279 242.46 79.4216 240.435 79.3011L240.613 76.3064ZM252.701 76.8533C254.713 76.9157 256.73 76.9638 258.75 76.9974L258.7 79.997C256.665 79.9631 254.634 79.9147 252.608 79.8519L252.701 76.8533ZM264.798 77.0544C266.811 77.0589 268.827 77.0489 270.848 77.0242L270.885 80.0239C268.85 80.0488 266.819 80.0589 264.792 80.0544L264.798 77.0544ZM276.896 76.9062C278.907 76.8524 280.922 76.7839 282.941 76.7005L283.065 79.6979C281.032 79.782 279.002 79.851 276.977 79.9052L276.896 76.9062ZM288.985 76.4066C290.993 76.2943 293.004 76.1672 295.02 76.025L295.231 79.0175C293.201 79.1608 291.175 79.2888 289.153 79.4019L288.985 76.4066ZM301.054 75.5549C303.057 75.3841 305.063 75.1984 307.073 74.9975L307.372 77.9826C305.347 78.185 303.326 78.372 301.308 78.544L301.054 75.5549ZM313.092 74.3516C315.089 74.1227 317.089 73.8787 319.093 73.6193L319.478 76.5945C317.459 76.8557 315.445 77.1015 313.434 77.3321L313.092 74.3516ZM325.09 72.799C327.079 72.5123 329.071 72.2104 331.067 71.8932L331.538 74.856C329.528 75.1755 327.521 75.4795 325.518 75.7683L325.09 72.799ZM337.038 70.9003C339.018 70.5564 341.001 70.1974 342.988 69.823L343.544 72.7711C341.543 73.1481 339.545 73.5097 337.551 73.856L337.038 70.9003ZM348.927 68.6601C349.918 68.4587 350.911 68.2533 351.904 68.0442L352.522 70.9798C351.522 71.1904 350.523 71.3972 349.524 71.6001L348.927 68.6601ZM353.852 66.999C355.239 67.904 355.631 69.7627 354.726 71.1506L339.978 93.7672C339.073 95.1551 337.215 95.5465 335.827 94.6415C334.439 93.7366 334.048 91.8778 334.952 90.49L348.061 70.3863L327.958 57.2774C326.57 56.3725 326.178 54.5137 327.083 53.1259C327.988 51.738 329.847 51.3465 331.235 52.2515L353.852 66.999ZM3.40934 0.354369C4.29847 0.827755 5.18869 1.30003 6.08001 1.77118L3.2761 7.07571C2.37945 6.60175 1.48394 6.12667 0.589591 5.6505L3.40934 0.354369ZM11.4411 4.58404C13.2286 5.51487 15.0204 6.44088 16.8166 7.36177L14.0793 12.701C12.2715 11.7742 10.4684 10.8423 8.66981 9.90571L11.4411 4.58404ZM22.2136 10.1065C24.0123 11.0137 25.8154 11.9157 27.6228 12.812L24.9571 18.1873C23.1374 17.2849 21.3221 16.3769 19.5115 15.4636L22.2136 10.1065ZM33.0551 15.4822C34.8661 16.3646 36.6815 17.241 38.5012 18.1113L35.9124 23.5241C34.0795 22.6475 32.2511 21.7647 30.4272 20.8762L33.0551 15.4822ZM43.969 20.7015C45.7931 21.5572 47.6214 22.4065 49.4541 23.2492L46.9475 28.7005C45.1007 27.8514 43.2585 26.9956 41.4207 26.1334L43.969 20.7015ZM54.9587 25.754C56.796 26.5813 58.6375 27.4016 60.4833 28.2148L58.0644 33.7056C56.2036 32.8858 54.3472 32.0589 52.4953 31.225L54.9587 25.754ZM66.0258 30.629C67.8764 31.4259 69.7313 32.2154 71.5905 32.9972L69.2648 38.5281C67.3896 37.7396 65.5189 36.9434 63.6527 36.1398L66.0258 30.629ZM77.1714 35.3153C79.0353 36.0798 80.9034 36.8365 82.7758 37.5849L80.5488 43.1563C78.6595 42.4011 76.7746 41.6377 74.8943 40.8664L77.1714 35.3153ZM88.3962 39.8016C90.2731 40.5318 92.1541 41.2536 94.0394 41.9666L91.9169 47.5786C90.0137 46.8588 88.115 46.1303 86.2207 45.3933L88.3962 39.8016ZM99.7005 44.0766C101.59 44.7706 103.484 45.4556 105.382 46.1314L103.37 51.7838C101.453 51.1013 99.5405 50.4096 97.6323 49.7089L99.7005 44.0766ZM111.084 48.1289C112.986 48.7846 114.893 49.4309 116.804 50.0676L114.908 55.76C112.977 55.1167 111.051 54.4638 109.129 53.8014L111.084 48.1289ZM122.545 51.9468C124.46 52.5624 126.38 53.1681 128.303 53.7637L126.528 59.4952C124.584 58.8932 122.645 58.281 120.709 57.6589L122.545 51.9468ZM134.083 55.5188C136.011 56.0924 137.942 56.6556 139.877 57.2082L138.23 62.9776C136.273 62.4189 134.32 61.8494 132.372 61.2695L134.083 55.5188ZM145.694 58.8331C147.633 59.3629 149.577 59.8818 151.524 60.3896L150.01 66.1955C148.04 65.6818 146.074 65.1568 144.113 64.621L145.694 58.8331ZM157.375 61.8786C159.326 62.3628 161.281 62.8356 163.24 63.2969L161.865 69.1372C159.882 68.6704 157.904 68.1918 155.93 67.7019L157.375 61.8786ZM169.123 64.6444C171.085 65.0812 173.051 65.5062 175.021 65.9192L173.79 71.7915C171.795 71.3734 169.805 70.9431 167.819 70.501L169.123 64.6444ZM180.933 67.1199C182.905 67.5074 184.881 67.8829 186.862 68.2459L185.78 74.1475C183.774 73.7799 181.773 73.3997 179.776 73.0072L180.933 67.1199ZM192.8 69.2948C194.781 69.6315 196.767 69.9557 198.756 70.2671L197.829 76.1949C195.813 75.8795 193.802 75.5511 191.794 75.2099L192.8 69.2948ZM204.717 71.1596C206.707 71.444 208.701 71.7154 210.699 71.9736L209.93 77.9241C207.905 77.6624 205.885 77.3874 203.868 77.0992L204.717 71.1596ZM216.679 72.7054C218.675 72.9359 220.675 73.1531 222.679 73.3567L222.073 79.3259C220.041 79.1195 218.014 78.8994 215.991 78.6657L216.679 72.7054ZM228.677 73.9242C230.677 74.0996 232.682 74.2613 234.691 74.4091L234.25 80.3929C232.214 80.243 230.181 80.0791 228.153 79.9013L228.677 73.9242ZM240.702 74.8091C242.706 74.9282 244.714 75.0335 246.726 75.1245L246.454 81.1184C244.414 81.026 242.378 80.9193 240.346 80.7985L240.702 74.8091ZM252.747 75.3541C254.752 75.4162 256.762 75.4641 258.775 75.4976L258.675 81.4968C256.633 81.4628 254.595 81.4142 252.561 81.3512L252.747 75.3541ZM264.802 75.5544C266.807 75.5589 268.816 75.5489 270.829 75.5243L270.903 81.5238C268.861 81.5488 266.822 81.5589 264.788 81.5544L264.802 75.5544ZM276.856 75.4068C278.86 75.3531 280.868 75.2849 282.879 75.2018L283.127 81.1967C281.086 81.281 279.05 81.3502 277.017 81.4046L276.856 75.4068ZM288.901 74.909C290.902 74.7971 292.906 74.6704 294.914 74.5287L295.336 80.5138C293.299 80.6576 291.266 80.7861 289.236 80.8996L288.901 74.909ZM300.926 74.0603C302.922 73.8902 304.921 73.7051 306.924 73.5049L307.521 79.4752C305.489 79.6783 303.46 79.866 301.436 80.0386L300.926 74.0603ZM312.921 72.8614C314.911 72.6333 316.904 72.3901 318.9 72.1317L319.67 78.0821C317.645 78.3442 315.623 78.5909 313.605 78.8223L312.921 72.8614ZM324.876 71.3143C326.858 71.0287 328.843 70.7279 330.832 70.4118L331.774 76.3375C329.756 76.658 327.742 76.9631 325.732 77.253L324.876 71.3143ZM336.781 69.4224C338.754 69.0798 340.731 68.722 342.71 68.3489L343.821 74.2451C341.814 74.6235 339.809 74.9864 337.808 75.3339L336.781 69.4224ZM348.628 67.1902C349.616 66.9894 350.605 66.7848 351.595 66.5764L352.831 72.4476C351.828 72.6589 350.825 72.8664 349.823 73.07L348.628 67.1902Z" fill="#083C86"/>
</svg>
