<svg width="89" height="88" viewBox="0 0 89 88" fill="none" xmlns="http://www.w3.org/2000/svg">
<circle cx="44.4137" cy="43.6735" r="43.6735" fill="#B89150"/>
<path d="M43.0482 31.6478C43.0482 25.7835 47.9796 20.9054 53.8439 20.9853C55.8977 21.0091 57.9008 21.6254 59.6126 22.7603C61.3245 23.8952 62.6721 25.5004 63.4935 27.3828H72.9031L64.2931 35.9928C63.7375 44.6416 59.909 52.7541 53.5859 58.6811C47.2628 64.608 38.9198 67.9045 30.2532 67.9002C21.7232 67.9002 19.5908 64.7015 19.5908 64.7015C19.5908 64.7015 28.1207 61.5027 32.3857 55.1052C32.3857 55.1052 15.3258 46.5753 19.5908 23.1178C19.5908 23.1178 30.2532 33.7803 43.0482 35.9128V31.6478Z" stroke="white" stroke-width="6.56122" stroke-linecap="round" stroke-linejoin="round"/>
</svg>
