<svg width="88" height="88" viewBox="0 0 88 88" fill="none" xmlns="http://www.w3.org/2000/svg">
<circle cx="44.3258" cy="43.6735" r="43.6735" fill="#B89150"/>
<path d="M45.3477 67.8986C59.4807 67.8986 70.9377 56.4416 70.9377 42.3087C70.9377 28.1757 59.4807 16.7188 45.3477 16.7188C31.2148 16.7188 19.7578 28.1757 19.7578 42.3087C19.7578 56.4416 31.2148 67.8986 45.3477 67.8986Z" stroke="white" stroke-width="6.56122" stroke-linecap="round" stroke-linejoin="round"/>
<path d="M53.6235 31.6446H49.3585C48.5174 31.6411 47.6839 31.8041 46.9061 32.1244C46.1283 32.4446 45.4217 32.9157 44.8269 33.5105C44.2321 34.1053 43.761 34.8119 43.4408 35.5897C43.1205 36.3675 42.9575 37.201 42.961 38.0421V67.897" stroke="white" stroke-width="6.56122" stroke-linecap="round" stroke-linejoin="round"/>
<path d="M34.4297 46.5703H51.4896" stroke="white" stroke-width="6.56122" stroke-linecap="round" stroke-linejoin="round"/>
</svg>
