<svg width="83" height="83" viewBox="0 0 83 83" fill="none" xmlns="http://www.w3.org/2000/svg">
<path d="M18.1562 75.2188H64.8438" stroke="#B89150" stroke-width="6.64" stroke-linecap="round" stroke-linejoin="round"/>
<path d="M41.5 44.0938C47.23 44.0938 51.875 39.4487 51.875 33.7188C51.875 27.9888 47.23 23.3438 41.5 23.3438C35.77 23.3438 31.125 27.9888 31.125 33.7188C31.125 39.4487 35.77 44.0938 41.5 44.0938Z" stroke="#B89150" stroke-width="6.64" stroke-linecap="round" stroke-linejoin="round"/>
<path d="M67.4375 33.7188C67.4375 57.0625 41.5 75.2188 41.5 75.2188C41.5 75.2188 15.5625 57.0625 15.5625 33.7188C15.5625 26.8397 18.2952 20.2424 23.1594 15.3782C28.0236 10.5139 34.6209 7.78125 41.5 7.78125C48.3791 7.78125 54.9764 10.5139 59.8406 15.3782C64.7048 20.2424 67.4375 26.8397 67.4375 33.7188Z" stroke="#B89150" stroke-width="6.64" stroke-linecap="round" stroke-linejoin="round"/>
</svg>
