<svg width="411" height="149" viewBox="0 0 411 149" fill="none" xmlns="http://www.w3.org/2000/svg">
<path d="M1.97772 124.375C1.37133 124.94 1.33731 125.889 1.90175 126.495L11.0997 136.377C11.6642 136.983 12.6133 137.017 13.2197 136.453C13.8261 135.889 13.8601 134.939 13.2957 134.333L5.11967 125.549L13.9034 117.373C14.5098 116.809 14.5438 115.86 13.9793 115.253C13.4149 114.647 12.4658 114.613 11.8594 115.177L1.97772 124.375ZM407.198 1.85848C406.418 2.52167 405.639 3.18161 404.862 3.8383L406.797 6.13019C407.577 5.47143 408.359 4.80944 409.141 4.14421L407.198 1.85848ZM400.212 7.73966C398.667 9.02749 397.127 10.3025 395.592 11.5646L397.497 13.8821C399.037 12.6155 400.583 11.3362 402.133 10.0441L400.212 7.73966ZM390.864 15.4224C389.294 16.6949 387.727 17.954 386.166 19.1997L388.036 21.545C389.604 20.2945 391.176 19.0307 392.753 17.7536L390.864 15.4224ZM381.416 22.9583C379.819 24.2118 378.226 25.4514 376.637 26.6772L378.47 29.0524C380.065 27.8215 381.664 26.5768 383.268 25.3182L381.416 22.9583ZM371.853 30.3357C370.229 31.5662 368.61 32.7822 366.994 33.9839L368.784 36.3912C370.407 35.184 372.034 33.9625 373.665 32.7266L371.853 30.3357ZM362.157 37.5462C360.509 38.7475 358.865 39.9339 357.224 41.1055L358.968 43.547C360.617 42.3695 362.269 41.1773 363.924 39.9702L362.157 37.5462ZM352.303 44.5816C350.639 45.7446 348.977 46.8925 347.317 48.0255L349.009 50.5031C350.677 49.364 352.348 48.2099 354.022 47.0408L352.303 44.5816ZM342.313 51.4023C340.628 52.5253 338.945 53.633 337.264 54.7255L338.899 57.2408C340.59 56.142 342.282 55.0279 343.977 53.8986L342.313 51.4023ZM332.176 57.9899C330.468 59.0706 328.762 60.1358 327.057 61.1856L328.63 63.7402C330.346 62.6838 332.062 61.612 333.78 60.5248L332.176 57.9899ZM321.885 64.3248C320.153 65.3606 318.422 66.3807 316.691 67.3852L318.197 69.9799C319.939 68.9687 321.682 67.9419 323.425 66.8994L321.885 64.3248ZM311.436 70.387C309.679 71.3749 307.921 72.347 306.163 73.3036L307.596 75.9389C309.367 74.9757 311.137 73.9968 312.906 73.0021L311.436 70.387ZM300.827 76.1565C299.043 77.0937 297.258 78.015 295.471 78.9207L296.827 81.5966C298.627 80.6842 300.425 79.7562 302.222 78.8123L300.827 76.1565ZM290.056 81.6147C288.246 82.4983 286.434 83.366 284.619 84.2182L285.894 86.9338C287.723 86.0751 289.549 85.2008 291.372 84.3106L290.056 81.6147ZM279.127 86.7449C277.292 87.5723 275.453 88.3841 273.61 89.1805L274.8 91.9343C276.658 91.1317 278.511 90.3137 280.36 89.4799L279.127 86.7449ZM268.046 91.5333C266.186 92.3025 264.322 93.0564 262.452 93.7952L263.555 96.5852C265.439 95.8406 267.318 95.0808 269.193 94.3056L268.046 91.5333ZM256.82 95.9697C254.937 96.6794 253.049 97.3741 251.155 98.0541L252.168 100.878C254.077 100.192 255.98 99.4921 257.878 98.7769L256.82 95.9697ZM245.458 100.048C243.555 100.698 241.645 101.333 239.728 101.953L240.652 104.808C242.584 104.182 244.509 103.542 246.427 102.887L245.458 100.048ZM233.973 103.767C232.051 104.357 230.121 104.932 228.184 105.494L229.019 108.376C230.972 107.809 232.916 107.229 234.853 106.635L233.973 103.767ZM222.378 107.13C220.439 107.661 218.492 108.178 216.535 108.682L217.284 111.587C219.255 111.079 221.216 110.558 223.17 110.024L222.378 107.13ZM210.685 110.144C208.732 110.617 206.769 111.078 204.796 111.526L205.46 114.452C207.447 114 209.424 113.536 211.392 113.06L210.685 110.144ZM198.909 112.82C196.942 113.239 194.965 113.645 192.977 114.04L193.561 116.982C195.562 116.585 197.553 116.176 199.533 115.755L198.909 112.82ZM187.062 115.174C185.082 115.54 183.092 115.895 181.09 116.239L181.598 119.196C183.612 118.85 185.615 118.492 187.608 118.124L187.062 115.174ZM175.155 117.221C173.166 117.538 171.166 117.844 169.154 118.14L169.59 121.108C171.614 120.811 173.626 120.503 175.627 120.184L175.155 117.221ZM163.199 118.981C161.206 119.252 159.2 119.512 157.183 119.763L157.553 122.74C159.581 122.488 161.597 122.226 163.602 121.954L163.199 118.981ZM151.202 120.474C149.206 120.701 147.2 120.918 145.181 121.127L145.489 124.111C147.518 123.901 149.535 123.683 151.54 123.455L151.202 120.474ZM139.168 121.719C137.174 121.905 135.168 122.084 133.15 122.254L133.402 125.243C135.429 125.072 137.444 124.893 139.448 124.706L139.168 121.719ZM127.102 122.736C125.112 122.886 123.11 123.028 121.096 123.163L121.296 126.156C123.319 126.021 125.329 125.878 127.328 125.728L127.102 122.736ZM115.016 123.544C113.029 123.66 111.03 123.77 109.019 123.872L109.172 126.869C111.19 126.766 113.197 126.656 115.192 126.539L115.016 123.544ZM102.958 124.159C100.957 124.246 98.943 124.327 96.9168 124.401L97.0266 127.399C99.0596 127.325 101.08 127.244 103.089 127.156L102.958 124.159ZM90.8831 124.602C88.8635 124.662 86.8316 124.717 84.7871 124.765L84.858 127.764C86.9086 127.716 88.9469 127.661 90.973 127.601L90.8831 124.602ZM78.7866 124.889C76.7744 124.924 74.75 124.954 72.7133 124.978L72.7491 127.978C74.7914 127.954 76.8215 127.924 78.8395 127.888L78.7866 124.889ZM66.6631 125.034C64.6641 125.047 62.6533 125.055 60.6304 125.058L60.6346 128.058C62.6625 128.055 64.6785 128.047 66.6826 128.034L66.6631 125.034ZM54.5253 125.051C52.5347 125.044 50.5325 125.033 48.5185 125.016L48.4942 128.016C50.5127 128.032 52.5195 128.044 54.5147 128.051L54.5253 125.051ZM42.4611 124.954C40.442 124.929 38.4112 124.899 36.3683 124.865L36.3183 127.864C38.3653 127.899 40.4003 127.928 42.4237 127.954L42.4611 124.954ZM30.3634 124.753C28.3502 124.712 26.3254 124.666 24.2889 124.617L24.216 127.616C26.2562 127.665 28.2847 127.711 30.3017 127.752L30.3634 124.753ZM18.2209 124.458C16.2269 124.403 14.2216 124.344 12.2051 124.281L12.1117 127.28C14.1315 127.342 16.14 127.402 18.1374 127.457L18.2209 124.458ZM6.12103 124.082C5.10138 124.047 4.07885 124.011 3.05344 123.974L2.94598 126.972C3.97294 127.009 4.99701 127.045 6.01821 127.08L6.12103 124.082ZM0.955707 123.277C-0.257058 124.406 -0.325092 126.305 0.803779 127.517L19.1997 147.281C20.3286 148.493 22.2269 148.561 23.4397 147.433C24.6524 146.304 24.7205 144.405 23.5916 143.193L7.23962 125.625L24.807 109.273C26.0198 108.144 26.0878 106.246 24.959 105.033C23.8301 103.821 21.9318 103.753 20.719 104.881L0.955707 123.277ZM406.227 0.715615C405.448 1.37779 404.67 2.0367 403.894 2.69236L407.765 7.27613C408.546 6.61633 409.329 5.95332 410.113 5.28708L406.227 0.715615ZM399.252 6.58743C397.709 7.87313 396.172 9.14593 394.639 10.4059L398.449 15.0408C399.993 13.772 401.541 12.4906 403.093 11.1964L399.252 6.58743ZM389.92 14.2569C388.352 15.527 386.789 16.7837 385.23 18.0271L388.972 22.7176C390.542 21.4647 392.117 20.1986 393.697 18.9192L389.92 14.2569ZM380.49 21.7783C378.896 23.0293 377.306 24.2664 375.721 25.4895L379.386 30.24C380.985 29.0065 382.587 27.7593 384.194 26.4982L380.49 21.7783ZM370.947 29.1403C369.327 30.368 367.711 31.5813 366.099 32.7803L369.679 37.5949C371.306 36.3849 372.937 35.1607 374.571 33.9221L370.947 29.1403ZM361.273 36.3342C359.629 37.5326 357.989 38.7161 356.353 39.8848L359.839 44.7678C361.492 43.5873 363.149 42.3922 364.808 41.1823L361.273 36.3342ZM351.444 43.352C349.784 44.512 348.127 45.6568 346.472 46.7867L349.855 51.7419C351.528 50.5997 353.203 49.4426 354.881 48.2704L351.444 43.352ZM341.481 50.1542C339.801 51.274 338.123 52.3785 336.447 53.4678L339.717 58.4985C341.412 57.3964 343.109 56.2792 344.808 55.1467L341.481 50.1542ZM331.373 56.7225C329.671 57.7999 327.97 58.8618 326.271 59.9083L329.417 65.0174C331.138 63.9578 332.859 62.8827 334.582 61.7922L331.373 56.7225ZM321.115 63.0375C319.389 64.0699 317.664 65.0866 315.938 66.0878L318.95 71.2773C320.698 70.2627 322.446 69.2326 324.195 68.1868L321.115 63.0375ZM310.701 69.0794C308.95 70.064 307.198 71.0327 305.446 71.9859L308.313 77.2566C310.09 76.29 311.866 75.3077 313.641 74.3096L310.701 69.0794ZM300.129 74.8286C298.352 75.7624 296.573 76.6804 294.793 77.5827L297.506 82.9345C299.312 82.0188 301.117 81.0874 302.92 80.1401L300.129 74.8286ZM289.398 80.2668C287.595 81.147 285.79 82.0115 283.981 82.8604L286.531 88.2916C288.367 87.4297 290.2 86.5521 292.03 85.6586L289.398 80.2668ZM278.511 85.3774C276.683 86.2016 274.851 87.0103 273.015 87.8036L275.395 93.3113C277.26 92.5056 279.12 91.6843 280.977 90.8474L278.511 85.3774ZM267.473 90.1472C265.62 90.9134 263.763 91.6643 261.901 92.4002L264.106 97.9802C265.998 97.2327 267.884 96.4699 269.766 95.6917L267.473 90.1472ZM256.291 94.5661C254.415 95.273 252.535 95.965 250.648 96.6423L252.675 102.289C254.592 101.601 256.502 100.899 258.407 100.18L256.291 94.5661ZM244.974 98.6286C243.078 99.2755 241.175 99.908 239.266 100.526L241.114 106.235C243.053 105.607 244.986 104.964 246.911 104.307L244.974 98.6286ZM233.533 102.333C231.619 102.92 229.696 103.494 227.766 104.054L229.437 109.816C231.397 109.248 233.349 108.666 235.293 108.069L233.533 102.333ZM221.982 105.683C220.05 106.212 218.11 106.727 216.161 107.229L217.658 113.04C219.636 112.53 221.605 112.007 223.566 111.47L221.982 105.683ZM210.332 108.686C208.385 109.158 206.429 109.617 204.463 110.063L205.793 115.914C207.786 115.461 209.77 114.996 211.745 114.518L210.332 108.686ZM198.597 111.353C196.637 111.77 194.666 112.175 192.685 112.569L193.853 118.454C195.861 118.055 197.858 117.645 199.845 117.222L198.597 111.353ZM186.789 113.699C184.816 114.064 182.832 114.418 180.836 114.761L181.853 120.674C183.873 120.327 185.882 119.969 187.881 119.599L186.789 113.699ZM174.92 115.74C172.936 116.056 170.942 116.361 168.935 116.656L169.808 122.592C171.838 122.294 173.856 121.985 175.863 121.665L174.92 115.74ZM162.998 117.495C161.01 117.764 159.01 118.024 156.998 118.274L157.738 124.228C159.772 123.975 161.793 123.713 163.804 123.441L162.998 117.495ZM151.032 118.984C149.042 119.21 147.04 119.427 145.026 119.635L145.643 125.603C147.677 125.393 149.699 125.174 151.71 124.945L151.032 118.984ZM139.028 120.225C137.039 120.412 135.038 120.589 133.025 120.759L133.528 126.738C135.56 126.567 137.579 126.387 139.587 126.199L139.028 120.225ZM126.99 121.24C125.004 121.39 123.006 121.532 120.996 121.666L121.396 127.653C123.423 127.517 125.437 127.374 127.44 127.223L126.99 121.24ZM114.929 122.046C112.945 122.163 110.95 122.272 108.942 122.374L109.248 128.367C111.271 128.264 113.281 128.153 115.28 128.036L114.929 122.046ZM102.893 122.66C100.895 122.748 98.8847 122.828 96.862 122.902L97.0815 128.898C99.1179 128.824 101.142 128.742 103.154 128.655L102.893 122.66ZM90.8381 123.103C88.8218 123.163 86.7931 123.217 84.7517 123.266L84.8934 129.264C86.9472 129.215 88.9886 129.161 91.018 129.1L90.8381 123.103ZM78.7601 123.389C76.7508 123.424 74.7293 123.454 72.6954 123.479L72.767 129.478C74.8121 129.454 76.845 129.424 78.866 129.388L78.7601 123.389ZM66.6533 123.534C64.657 123.547 62.6487 123.555 60.6283 123.558L60.6367 129.558C62.6671 129.555 64.6856 129.547 66.6924 129.534L66.6533 123.534ZM54.5306 123.551C52.5423 123.544 50.5424 123.533 48.5306 123.516L48.482 129.516C50.5028 129.532 52.5119 129.544 54.5095 129.551L54.5306 123.551ZM42.4798 123.454C40.4629 123.429 38.4341 123.399 36.3932 123.365L36.2933 129.364C38.3423 129.398 40.3795 129.428 42.405 129.453L42.4798 123.454ZM30.3942 123.253C28.3829 123.212 26.36 123.167 24.3253 123.117L24.1796 129.115C26.2216 129.165 28.252 129.211 30.2709 129.252L30.3942 123.253ZM18.2626 122.959C16.2703 122.904 14.2667 122.845 12.2517 122.782L12.065 128.779C14.0865 128.842 16.0967 128.901 18.0957 128.957L18.2626 122.959ZM6.17247 122.583C5.1536 122.548 4.13181 122.512 3.10714 122.475L2.89228 128.471C3.91998 128.508 4.9448 128.544 5.96677 128.579L6.17247 122.583Z" fill="#083C86"/>
</svg>
