<svg width="100" height="85" viewBox="0 0 100 85" fill="none" xmlns="http://www.w3.org/2000/svg">
<path d="M27.2675 0.935442C27.0497 0.716942 26.791 0.543574 26.5061 0.425281C26.2212 0.306987 25.9158 0.246094 25.6073 0.246094C25.2988 0.246094 24.9934 0.306987 24.7085 0.425281C24.4236 0.543574 24.1649 0.716942 23.9472 0.935442L11.5097 13.3007L7.07607 8.98036C6.85832 8.76186 6.59959 8.5885 6.3147 8.4702C6.02982 8.35191 5.72438 8.29102 5.41591 8.29102C5.10744 8.29102 4.802 8.35191 4.51712 8.4702C4.23223 8.5885 3.9735 8.76186 3.75575 8.98036L0.689348 12.0507C0.470848 12.2684 0.297481 12.5272 0.179187 12.812C0.0608929 13.0969 0 13.4024 0 13.7108C0 14.0193 0.0608929 14.3247 0.179187 14.6096C0.297481 14.8945 0.470848 15.1532 0.689348 15.371L9.98427 24.6288C10.4482 25.0698 11.0639 25.3157 11.704 25.3157C12.3441 25.3157 12.9598 25.0698 13.4237 24.6288L16.4686 21.578L30.5702 7.47841C31.0096 7.03869 31.2578 6.44346 31.2611 5.82187C31.2644 5.20027 31.0225 4.60244 30.5878 4.1581L27.2675 0.935442ZM27.2675 32.0272C27.0497 31.8087 26.791 31.6354 26.5061 31.5171C26.2212 31.3988 25.9158 31.3379 25.6073 31.3379C25.2988 31.3379 24.9934 31.3988 24.7085 31.5171C24.4236 31.6354 24.1649 31.8087 23.9472 32.0272L11.5097 44.4726L7.07607 40.1561C6.85832 39.9376 6.59959 39.7643 6.3147 39.646C6.02982 39.5277 5.72438 39.4668 5.41591 39.4668C5.10744 39.4668 4.802 39.5277 4.51712 39.646C4.23223 39.7643 3.9735 39.9376 3.75575 40.1561L0.689348 43.2206C0.470848 43.4383 0.297481 43.6971 0.179187 43.982C0.0608929 44.2668 0 44.5723 0 44.8808C0 45.1892 0.0608929 45.4947 0.179187 45.7796C0.297481 46.0644 0.470848 46.3232 0.689348 46.5409L9.96083 55.8183C10.4245 56.2591 11.0398 56.505 11.6796 56.505C12.3194 56.505 12.9347 56.2591 13.3983 55.8183L16.4647 52.7538L30.5663 38.6483C31.004 38.2117 31.2514 37.6198 31.2547 37.0016C31.258 36.3833 31.0169 35.7888 30.5839 35.3476L27.2675 32.0272ZM12.4999 65.8768C7.32607 65.8768 3.00966 70.0761 3.00966 75.2518C3.00966 80.4276 7.32997 84.6268 12.4999 84.6268C14.9863 84.6268 17.3709 83.6391 19.129 81.881C20.8872 80.1228 21.8749 77.7383 21.8749 75.2518C21.8749 72.7654 20.8872 70.3809 19.129 68.6227C17.3709 66.8646 14.9863 65.8768 12.4999 65.8768ZM96.8749 69.0018H40.6249C39.7961 69.0018 39.0012 69.3311 38.4152 69.9171C37.8291 70.5032 37.4999 71.298 37.4999 72.1268V78.3768C37.4999 79.2057 37.8291 80.0005 38.4152 80.5866C39.0012 81.1726 39.7961 81.5018 40.6249 81.5018H96.8749C97.7037 81.5018 98.4986 81.1726 99.0846 80.5866C99.6707 80.0005 99.9999 79.2057 99.9999 78.3768V72.1268C99.9999 71.298 99.6707 70.5032 99.0846 69.9171C98.4986 69.3311 97.7037 69.0018 96.8749 69.0018ZM96.8749 6.50185H40.6249C39.7961 6.50185 39.0012 6.83109 38.4152 7.41714C37.8291 8.00319 37.4999 8.79805 37.4999 9.62685V15.8768C37.4999 16.7057 37.8291 17.5005 38.4152 18.0866C39.0012 18.6726 39.7961 19.0018 40.6249 19.0018H96.8749C97.7037 19.0018 98.4986 18.6726 99.0846 18.0866C99.6707 17.5005 99.9999 16.7057 99.9999 15.8768V9.62685C99.9999 8.79805 99.6707 8.00319 99.0846 7.41714C98.4986 6.83109 97.7037 6.50185 96.8749 6.50185ZM96.8749 37.7519H40.6249C39.7961 37.7519 39.0012 38.0811 38.4152 38.6671C37.8291 39.2532 37.4999 40.048 37.4999 40.8769V47.1269C37.4999 47.9557 37.8291 48.7505 38.4152 49.3366C39.0012 49.9226 39.7961 50.2518 40.6249 50.2518H96.8749C97.7037 50.2518 98.4986 49.9226 99.0846 49.3366C99.6707 48.7505 99.9999 47.9557 99.9999 47.1269V40.8769C99.9999 40.048 99.6707 39.2532 99.0846 38.6671C98.4986 38.0811 97.7037 37.7519 96.8749 37.7519Z" fill="#083C86"/>
</svg>
