<svg width="41" height="24" viewBox="0 0 41 24" fill="none" xmlns="http://www.w3.org/2000/svg">
<path d="M39.1666 1.61458C39.4419 0.684523 39.1666 0 37.8422 0H33.4598C32.3437 0 31.8303 0.587797 31.555 1.24256C31.555 1.24256 29.3229 6.68154 26.1681 10.2083C25.1488 11.2277 24.68 11.5551 24.122 11.5551C23.8467 11.5551 23.4226 11.2277 23.4226 10.2976V1.61458C23.4226 0.498511 23.1101 0 22.1875 0H15.2976C14.5982 0 14.1815 0.520833 14.1815 1.00446C14.1815 2.06101 15.7589 2.30655 15.9226 5.28273V11.7411C15.9226 13.1548 15.6696 13.4152 15.1116 13.4152C13.6235 13.4152 10.0074 7.95386 7.86458 1.70387C7.43303 0.491071 7.00892 0 5.88541 0H1.50298C0.252976 0 0 0.587797 0 1.24256C0 2.40327 1.48809 8.16964 6.92708 15.7887C10.5506 20.9896 15.6548 23.8095 20.2976 23.8095C23.0878 23.8095 23.43 23.1845 23.43 22.1056C23.43 17.1354 23.1771 16.6667 24.5759 16.6667C25.2232 16.6667 26.3393 16.994 28.9434 19.5015C31.9196 22.4777 32.4107 23.8095 34.0774 23.8095H38.4598C39.7098 23.8095 40.3422 23.1845 39.9777 21.9494C39.1443 19.3527 33.5119 14.0104 33.2589 13.6533C32.6116 12.8199 32.7976 12.4479 33.2589 11.7039C33.2663 11.6964 38.6161 4.16666 39.1666 1.61458Z" fill="#B89150"/>
</svg>
